# xmcd
#
# Track frame offsets:
#	150
#	26223
#	50291
#	71787
#	90629
#	108646
#	128142
#	148311
#	167310
#	192210
#	206735
#	226812
#	242275
#	269450
#	291432
#	318418
#	332420
#
# Disc length: 4772 seconds
#
# Revision: 0
# Processed by: cddbd v1.5.2PL0 Copyright (c) Steve Scherf et al.
# Submitted via: EasyCDDAExtractor 8.2.3.1
#
DISCID=fa12a211
DTITLE=Various Artist - Woman and the Blues   vol.2 
DYEAR=2002
DGENRE=Blues
TTITLE0=ETTA JAMES -  I Sing the Blues
TTITLE1=CLAUDIA CUMMINGS - Summertime
TTITLE2=DEBBIE DAVIES - Money
TTITLE3=JANIS JOPLIN - One Good Man
TTITLE4=ELLA FITZGERALD - How Long Blues
TTITLE5=SARAH VAUGHAN - Something
TTITLE6=KOKO TAYLOR - That's Why I'm Crying
TTITLE7=RITA CHIARELLI - Lawless
TTITLE8=ETTA JAMES - You Don't Know What Love Is
TTITLE9=VAYA CON DIOS - Far Gone Now
TTITLE10=BARBARA LYNN - Sweet Sixteen
TTITLE11=MARCIA BALL - Why Women Cry
TTITLE12=DENISE PERRIER - Cry Me a River
TTITLE13=NIKI HARRIS - Stormy Monday
TTITLE14=LITTLE FEAT - It Take a Lot to Laugh, It Take a Train to Cry
TTITLE15=KATIE WEBSTER - A Little Meat on the Side
TTITLE16=MARIA MULDAUR - Fool's Paradise
EXTD=
EXTT0=
EXTT1=
EXTT2=
EXTT3=
EXTT4=
EXTT5=
EXTT6=
EXTT7=
EXTT8=
EXTT9=
EXTT10=
EXTT11=
EXTT12=
EXTT13=
EXTT14=
EXTT15=
EXTT16=
PLAYORDER=
